<?xml version="1.0" encoding="utf-8"?>
<!-- Generator: Adobe Illustrator 16.0.0, SVG Export Plug-In . SVG Version: 6.00 Build 0)  -->
<!DOCTYPE svg PUBLIC "-//W3C//DTD SVG 1.1//EN" "http://www.w3.org/Graphics/SVG/1.1/DTD/svg11.dtd">
<svg version="1.1" id="Layer_1" xmlns:sketch="http://www.bohemiancoding.com/sketch/ns"
	 xmlns="http://www.w3.org/2000/svg" xmlns:xlink="http://www.w3.org/1999/xlink" x="0px" y="0px" width="184px" height="200px"
	 viewBox="0 0 184 200" enable-background="new 0 0 184 200" xml:space="preserve">
<path fill="#FFFFFF" d="M31.5,79.5c0.116,21.352,3.835,42.688,1,64c-0.157,1.184-0.639,2.146-1.312,2.89h120.257
	c-0.116-14.407-0.432-28.811-0.675-43.216c-0.231-13.659,0.39-27.49-0.753-41.114c-0.58-6.915-1.528-15.476-5.6-21.579
	c-1.681,0.005-3.368-0.086-5.061-0.299c-8.912-1.12-17.479-3.755-26.187-5.86c-3.48-0.842-4.383-4.824-2.854-7.448H77.318
	c-12.885,19.21-30.454,34.543-45.912,51.65C31.462,78.832,31.498,79.155,31.5,79.5z"/>
<title>shield-large</title>
<desc>Created with Sketch.</desc>
<g>
	<polygon fill="#E23237" points="91.081,68.481 91.081,67.965 90.965,68.242 90.831,67.965 75.585,104.485 75.835,104.485 
		90.831,104.485 91.081,104.485 91.25,104.485 91.25,68.828 	"/>
	<polygon fill="#B52E31" points="91.25,68.828 91.25,104.485 108.543,104.485 	"/>
</g>
<polygon fill="#E23237" points="91.081,119.843 90.831,119.843 69.014,119.843 58.621,145.783 39.287,146.138 90.958,31.343 
	91.25,31.967 91.25,11.435 91.081,11.377 91.081,11.289 90.953,11.334 90.831,11.292 90.831,11.377 8.302,40.708 20.951,149.935 
	90.831,188.572 90.831,188.711 90.956,188.642 91.081,188.711 91.081,188.572 91.25,188.479 91.25,119.843 "/>
<polygon fill="#B52E31" points="175.697,40.187 91.25,11.435 91.25,31.967 144.525,146.14 126.605,146.14 115.227,119.843 
	91.25,119.843 91.25,188.479 161.943,149.411 "/>
</svg>
